# xmcd
# 
# Track frame offsets:
#     150
#     20905
#     35320
#     47047
#     64367
#     79690
#     96062
# 
# Disc length: 1820
# 
# Revision: 0
# Processed by: cddbd v1.5.2PL0 Copyright (c) Steve Scherf et al.
# Submitted via: fre:ac v1.0.17
# 
DISCID=56071a07
DTITLE=Lucidas - Abrindo o Caminho
DYEAR=0
DGENRE=Rock/MPB
TTITLE0=Ser Alguém
TTITLE1=Um Lugar a Esperar
TTITLE2=Pequenininha
TTITLE3=Em Dependência
TTITLE4=Apenas um Beijo
TTITLE5=Por Telefone
TTITLE6=Sem Nome II
EXTD=
EXTT0=
EXTT1=
EXTT2=
EXTT3=
EXTT4=
EXTT5=
EXTT6=
PLAYORDER=
